<?xml version="1.0" encoding="utf-8"?>
<!-- Generator: Adobe Illustrator 26.3.1, SVG Export Plug-In . SVG Version: 6.00 Build 0)  -->
<svg version="1.1" id="Layer_1" xmlns="http://www.w3.org/2000/svg" xmlns:xlink="http://www.w3.org/1999/xlink" x="0px" y="0px"
	 viewBox="0 0 999.3 337.9" style="enable-background:new 0 0 999.3 337.9;" xml:space="preserve">
<style type="text/css">
	.st0{fill:#FB8B04;}
	.st1{fill:#0147BA;}
	.st2{fill:#FFFFFF;}
</style>
<path id="path853" class="st0" d="M825.2,6.2c-2.6,0-5.2,0.1-7.8,0.2c87.8,4.1,157.7,76.5,157.7,165.2s-69.9,161.2-157.7,165.2
	c2.6,0.1,5.2,0.2,7.8,0.2c117.3,0,174.1-74.1,174.1-165.4S942.4,6.2,825.2,6.2z"/>
<circle class="st0" cx="169" cy="169" r="169"/>
<circle class="st1" cx="178.3" cy="169" r="169"/>
<polygon class="st1" points="401.5,89.7 391.2,47.1 380.9,89.7 362.3,89.7 342.8,21.7 362.5,21.7 372.8,67.1 384.5,21.7 397.9,21.7 
	409.6,67.1 419.8,21.7 439.5,21.7 420.1,89.7 "/>
<polygon class="st1" points="488.3,89.7 488.3,62.4 460,62.4 460,89.7 442.5,89.7 442.5,21.7 460,21.7 460,47.1 488.3,47.1 
	488.3,21.7 505.8,21.7 505.8,89.7 "/>
<path class="st1" d="M561.7,89.7l-3.4-9.8h-26.8l-3.4,9.8h-19.9l25.6-68h22l25.7,68H561.7z M544.9,39l-8.7,25.6h17.3L544.9,39z"/>
<polygon class="st1" points="592.9,89.7 592.9,37 573.9,37 573.9,21.7 629.5,21.7 629.5,37 610.5,37 610.5,89.7 "/>
<polygon class="st1" points="677.4,89.7 677.4,62.3 651.6,21.7 671.4,21.7 686.2,46.8 700.8,21.7 720.7,21.7 694.9,62.3 694.9,89.7 
	"/>
<path class="st1" d="M715.6,55.7c0-20.7,15.6-35.2,36.4-35.2c20.8,0,36.3,14.5,36.3,35.2S772.8,90.9,752,90.9
	C731.2,90.9,715.6,76.4,715.6,55.7z M770.4,55.7c0-11.1-7.2-19.7-18.5-19.7c-11.3,0-18.6,8.6-18.6,19.7c0,11,7.2,19.7,18.6,19.7
	C763.2,75.4,770.4,66.8,770.4,55.7z"/>
<path class="st1" d="M794.6,62.2V21.7h17.9v39.9c0,8.1,4.8,13.9,14.4,13.9c9.4,0,14.3-5.8,14.3-13.9V21.7h17.7v40.4
	c0,16.9-10.3,28.9-32,28.9C804.9,90.9,794.6,78.9,794.6,62.2z"/>
<polygon class="st2" points="174.4,210.8 174.8,169.3 163.1,210.8 146.2,210.8 134.5,169.5 135,210.8 111.7,210.8 111.7,127.1 
	141.4,127.1 154.7,171.8 167.8,127.1 197.6,127.1 197.6,210.8 "/>
<path class="st2" d="M251.8,210.8l-3.8-11.3h-22.7l-4.1,11.3h-26.8l32.9-83.6h19l32.5,83.6H251.8z M241.2,178l-4.4-14.7l-4.4,14.7
	H241.2z"/>
<path class="st2" d="M297.4,186.3c1.3,5.2,4.6,7.8,9.8,7.8c2.8,0,5.1-0.8,6.8-2.4c1.7-1.6,2.6-3.6,2.6-6.1c0-1.6-0.4-3.1-1.1-4.4
	c-0.8-1.3-1.8-2.3-3.2-3c-1.7-0.8-4.1-1.1-7.3-1.1h-7.7V161h3.7c3.5,0,6.2-0.8,8-2.5c1.8-1.7,2.7-4.1,2.7-7.3c0-2.2-0.6-4-1.7-5.4
	c-1.1-1.4-2.6-2-4.3-2c-4.3,0-6.5,2.4-6.8,7.3h-21.6c0.1-4,0.9-7.6,2.3-10.9c1.4-3.3,3.4-6.1,6-8.4c2.6-2.3,5.6-4.1,9.2-5.4
	c3.6-1.3,7.5-1.9,11.9-1.9c3.8,0,7.4,0.6,10.6,1.8c3.2,1.2,6.1,2.8,8.5,4.9c2.4,2.1,4.3,4.6,5.7,7.4c1.4,2.9,2,5.9,2,9.3
	c0,8-3.8,14-11.4,18c10.8,3.7,16.2,10.5,16.2,20.6c0,3.7-0.8,7.3-2.5,10.5c-1.7,3.3-3.9,6.1-6.8,8.6c-2.9,2.4-6.3,4.3-10.2,5.7
	c-3.9,1.4-8,2.1-12.3,2.1c-5.9,0-11.3-1.1-16.2-3.4c-4.9-2.3-8.6-5.4-11-9.3c-1.2-2-2.1-4-2.8-6.2c-0.7-2.2-1.1-4.9-1.4-8.1H297.4z"
	/>
<polygon class="st0" points="444.1,196.7 407.5,146.5 407.5,196.7 385.1,196.7 385.1,109.9 408.1,109.9 443.2,157.7 443.2,109.9 
	465.7,109.9 465.7,196.7 "/>
<polygon class="st0" points="480,196.7 480,109.9 543.6,109.9 543.6,129.4 502.4,129.4 502.4,143 542.7,143 542.7,162.5 
	502.4,162.5 502.4,177.2 543.6,177.2 543.6,196.7 "/>
<polygon class="st0" points="555.3,196.7 555.3,109.9 618.9,109.9 618.9,129.4 577.6,129.4 577.6,143 617.9,143 617.9,162.5 
	577.6,162.5 577.6,177.2 618.9,177.2 618.9,196.7 "/>
<path class="st0" d="M630.6,196.7v-86.7H667c27.3,0,46.9,16.4,46.9,43.3c0,26.9-19.6,43.4-46.8,43.4H630.6z M691,153.2
	c0-13.4-8.1-23.8-23.9-23.8h-14.2v47.7h14C682.2,177.2,691,166.1,691,153.2z"/>
<polygon class="st0" points="775.1,196.7 775.1,129.4 750.8,129.4 750.8,109.9 821.7,109.9 821.7,129.4 797.5,129.4 797.5,196.7 "/>
<path class="st0" d="M823.7,153.4c0-26.4,19.9-44.9,46.4-44.9c26.5,0,46.3,18.5,46.3,44.9s-19.8,44.9-46.3,44.9
	C843.6,198.2,823.7,179.8,823.7,153.4z M893.7,153.4c0-14.2-9.2-25.1-23.5-25.1c-14.4,0-23.7,10.9-23.7,25.1
	c0,14,9.2,25.1,23.7,25.1C884.4,178.5,893.7,167.4,893.7,153.4z"/>
<polygon class="st0" points="428,329.8 399.2,288.4 391.7,297.6 391.7,329.8 363.4,329.8 363.4,219.7 391.7,219.7 391.7,264.9 
	425.6,219.7 460.5,219.7 417.8,271.2 462.9,329.8 "/>
<polygon class="st0" points="544.5,329.8 498,266.1 498,329.8 469.6,329.8 469.6,219.7 498.8,219.7 543.4,280.3 543.4,219.7 
	571.9,219.7 571.9,329.8 "/>
<path class="st0" d="M584.5,274.8c0-33.5,25.2-56.9,58.9-56.9s58.7,23.4,58.7,56.9s-25.1,56.9-58.7,56.9S584.5,308.3,584.5,274.8z
	 M673.2,274.8c0-18-11.7-31.8-29.9-31.8c-18.3,0-30,13.9-30,31.8c0,17.8,11.7,31.8,30,31.8C661.5,306.7,673.2,292.7,673.2,274.8z"/>
<polygon class="st0" points="795.5,329.8 778.8,260.8 762.2,329.8 732.1,329.8 700.6,219.7 732.5,219.7 749.1,293.2 767.9,219.7 
	789.7,219.7 808.5,293.2 825,219.7 857,219.7 825.5,329.8 "/>
<path class="st2" d="M109.3,160.9H58.6v21.5h21.5c-0.9,1.6-2.1,3-3.6,4.1c-2.6,1.9-5.7,2.8-9.5,2.8c-2.8,0-5.5-0.5-8-1.6
	c-2.5-1-4.6-2.4-6.2-4.1c-1.6-1.7-2.9-4-3.8-6.7c-1-2.8-1.4-5.9-1.4-9c0-5.5,1.7-9.9,5.1-13.4c3.6-3.8,7.9-5.7,13.1-5.7
	c3.2,0,6,0.7,8.5,2.2c1.9,1.1,3.4,2.6,4.7,4.4H107l0-0.1c-1.2-4.3-3.2-8.2-5.8-11.9c-2.6-3.6-5.7-6.8-9.3-9.4
	c-3.6-2.6-7.6-4.7-11.9-6.1c-4.4-1.5-9-2.2-13.6-2.2c-5.5,0-11.1,1-16.5,3.1c-5.4,2.1-10.1,4.9-13.9,8.5c-4.1,3.9-7.4,8.7-9.8,14.2
	c-2.3,5.5-3.5,11.4-3.5,17.3c0,6.1,1.1,11.9,3.4,17.1c2.2,5.2,5.3,9.9,9.2,13.8c3.9,3.9,8.5,7,13.8,9.3c5.3,2.2,11,3.4,17,3.4
	c6.1,0,11.9-1.2,17.2-3.4c5.3-2.3,9.9-5.4,13.8-9.4c3.9-4,7-8.7,9.2-14.1c2.2-5.4,3.3-11.4,3.3-17.8L109.3,160.9z"/>
</svg>
