<?xml version="1.0" encoding="utf-8"?>
<!-- Generator: Adobe Illustrator 25.2.1, SVG Export Plug-In . SVG Version: 6.00 Build 0)  -->
<svg version="1.1" id="Layer_1" xmlns="http://www.w3.org/2000/svg" xmlns:xlink="http://www.w3.org/1999/xlink" x="0px" y="0px"
	 viewBox="0 0 1000 103" style="enable-background:new 0 0 1000 103;" xml:space="preserve">
<style type="text/css">
	.st0{fill:currentColor;}
</style>
<g>
	<g>
		<path class="st0" d="M45.39,96.25H33.36V15.78H2.06V5.01l74.65,0.03l-0.02,10.74h-31.3V96.25z"/>
		<path class="st0" d="M102.75,96.25H90.72V5.06h12.03v39.27h47.11V5.06l12.03,0.01v91.19h-12.03V55.09h-47.11V96.25z"/>
		<path class="st0" d="M182.22,5.01l12.03-0.02v91.26h-12.03V5.01z"/>
		<path class="st0" d="M222.54,66.35v4.68c0,9.63,7.34,16.22,17.48,16.22c10.14,0,17.48-6.59,17.48-16.22
			c0-8.11-4.82-13.42-17.1-16.85c-17.62-4.94-26.36-12.54-26.36-26.73c0-7.09,2.4-12.93,7.34-17.5c4.95-4.56,11.28-6.84,18.76-6.84
			c7.35,0,13.43,2.15,18.37,6.59c4.94,4.43,7.48,10.14,7.6,17.11v1.89h-12.03v-1.26c0-7.74-5.83-13.43-13.94-13.43
			c-8.23,0-14.06,5.7-14.06,13.43c0,7.22,5.06,11.53,14.32,14.19c9.62,2.91,16.85,6.46,21.67,10.77c4.94,4.19,7.34,10.51,7.34,18.88
			c0,7.99-2.79,14.57-8.23,19.51c-5.45,4.94-12.54,7.36-21.28,7.36c-8.75,0-15.71-2.41-21.17-7.36c-5.31-4.94-7.97-11.4-7.97-19.51
			L222.54,66.35z"/>
		<path class="st0" d="M320.78,96.25V5.01h27.25c14.82,0,26.36,3.94,34.72,11.91c8.49,7.99,12.67,19.14,12.67,33.46
			c0,14.33-4.05,25.61-12.16,33.7c-7.99,8.12-19.39,12.17-33.96,12.17H320.78z M338.02,20.98v59.43h10.02
			c19.13,0,29.78-10.52,29.78-30.16c0-19.39-12.17-29.27-30.04-29.27H338.02z"/>
		<path class="st0" d="M450.47,3.24c13.69,0,24.59,4.56,32.7,13.56c8.11,9,12.16,20.28,12.16,33.84c0,13.56-4.05,24.84-12.16,33.83
			c-8.11,9-19,13.56-32.7,13.56c-13.68,0-24.58-4.56-32.69-13.56c-8.11-8.99-12.17-20.27-12.17-33.83
			c0-13.56,4.06-24.84,12.17-33.84C425.89,7.79,436.78,3.24,450.47,3.24z M450.47,82.31c7.99,0,14.57-3.03,19.65-8.99
			c5.19-5.96,7.73-13.56,7.73-22.68c0-9.13-2.54-16.73-7.73-22.68c-5.08-5.96-11.66-9-19.65-9c-7.97,0-14.57,3.05-19.76,9
			c-5.08,5.96-7.6,13.56-7.6,22.68c0,9.13,2.53,16.73,7.6,22.68C435.89,79.28,442.49,82.31,450.47,82.31z"/>
		<path class="st0" d="M573.19,61.53l-0.38,0.12h-28.39l4.94-15.84h40.93v11.79c0,12.16-3.8,21.92-11.4,29.4
			c-7.6,7.34-17.61,11.02-30.16,11.02c-13.56,0-24.19-4.56-31.81-13.56c-7.6-9.13-11.4-20.53-11.4-34.21
			c0-13.56,3.94-24.84,11.66-33.7c7.73-8.88,18.37-13.31,31.93-13.31c18.37,0,32.31,9.51,39.03,24.71l-16.47,5.96
			c-4.43-9.25-12.42-14.96-22.56-14.96c-7.73,0-14.07,2.91-18.88,8.87c-4.82,5.83-7.22,13.31-7.22,22.44
			c0,9.37,2.28,17.11,6.83,23.07c4.57,5.96,10.91,8.99,18.88,8.99C562.04,82.31,571.67,75.34,573.19,61.53z"/>
		<path class="st0" d="M612.01,35.17h-14.07l11.4-31.43h19.64L612.01,35.17z"/>
		<path class="st0" d="M660.68,40.11c19.27,5.45,29.65,13.43,29.65,30.04c0,7.85-2.91,14.44-8.62,19.9
			c-5.7,5.31-13.05,7.97-22.05,7.97c-9.11,0-16.47-2.53-22.18-7.6c-5.7-5.19-8.48-11.91-8.48-20.27v-2.03l17.1-6.08v6.2
			c0,9,4.82,13.82,13.56,13.82c8.49,0,13.69-5.08,13.69-11.66c0-6.97-4.82-11.65-14.57-14.07c-17.62-4.43-26.36-11.28-26.36-26.87
			c0-7.6,2.54-13.81,7.48-18.75c5.06-4.94,11.65-7.48,19.76-7.48c8.25,0,14.83,2.4,19.77,7.22c4.94,4.69,7.48,11.03,7.48,19.01v2.92
			H669.8v-3.05c0-5.7-4.05-10-10.14-10c-6.08,0-10,4.31-10,10C649.66,34.92,653.2,37.96,660.68,40.11z"/>
		<path class="st0" d="M807.97,96.25h-65.63V5.01h12.03v80.47h53.6V96.25z"/>
		<path class="st0" d="M821.97,5.01H834v91.24h-12.03V5.01z"/>
		<path class="st0" d="M866.33,96.25h-12.03V5.01h60.94v10.77h-48.91V44.3h48.91v10.77h-48.91V96.25z"/>
		<path class="st0" d="M996,96.25h-62.97V5.01H996v10.77h-50.94V44.3H996v10.77h-50.94v30.41H996V96.25z"/>
	</g>
</g>
</svg>
